<?xml version="1.0" encoding="utf-8"?>
<!-- Generator: Adobe Illustrator 22.0.0, SVG Export Plug-In . SVG Version: 6.00 Build 0)  -->
<svg version="1.1" id="图层_1" xmlns="http://www.w3.org/2000/svg" xmlns:xlink="http://www.w3.org/1999/xlink" x="0px" y="0px"
	 viewBox="0 0 400 300" style="enable-background:new 0 0 400 300;" xml:space="preserve">
<style type="text/css">
	.st0{fill:#663008;}
	.st1{fill:#101D3A;}
	.st2{fill:#ACA89E;}
	.st3{fill:none;stroke:#000000;stroke-miterlimit:10;}
	.st4{fill:#E6E6E6;}
	.st5{fill:url(#SVGID_1_);}
	.st6{fill:url(#SVGID_2_);}
	.st7{fill:url(#SVGID_3_);}
	.st8{opacity:0.62;fill:none;stroke:#5CF5FF;stroke-width:5;stroke-linecap:round;stroke-miterlimit:10;}
	.st9{fill:#808080;}
	.st10{fill:none;}
	.st11{fill:#999999;}
	.st12{fill:#FFB600;}
	.st13{fill:#1A005C;}
</style>
<g>
	<path class="st0" d="M225.7,249.3c-6.4,6.3-15.2,10.2-24.9,10.2c-9.7,0-18.5-3.9-24.9-10.2c0.2-1,0.5-2,0.8-2.9
		c3.4-10,12.9-17.2,24.1-17.2c11.2,0,20.6,7.2,24.1,17.2C225.2,247.3,225.5,248.3,225.7,249.3z"/>
	<path class="st1" d="M223.2,248.8c-5.8,5.7-13.7,9.2-22.5,9.2c-8.8,0-16.7-3.5-22.5-9.2c0.2-0.9,0.4-1.8,0.7-2.7
		c3.1-9,11.7-15.5,21.8-15.5c10.1,0,18.6,6.5,21.7,15.5C222.8,247,223,247.9,223.2,248.8z"/>
	<path class="st2" d="M396,257.7l-170.3-11.6h-3.2c-3.1-9-11.7-15.5-21.7-15.5c-10.1,0-18.7,6.5-21.8,15.5h-3.2L5.5,257.7L31,237
		c0,0,37.6,0.7,86.3-11.4c0.3-0.1,0.5-0.1,0.8-0.2c48.1-11.9,54.3-13.6,82.6,0.2c28.3-13.7,34.5-12.1,82.6-0.2
		c0.3,0.1,0.5,0.1,0.8,0.2c48.8,12.1,86.3,11.4,86.3,11.4L396,257.7z"/>
	<line class="st3" x1="396" y1="257.7" x2="396" y2="257.7"/>
	<path class="st4" d="M370.5,237c0,0-37.6,0.7-86.3-11.4c-0.3-0.1-0.5-0.1-0.8-0.2c-48.1-11.9-54.3-13.6-82.6,0.2
		c-28.3-13.7-34.5-12.1-82.6-0.2c-0.3,0.1-0.5,0.1-0.8,0.2C68.6,237.7,31,237,31,237l36.4-20.7l31.8-18c2,4,4.3,7.9,6.7,11.7
		c3.7-0.8,7.6-1.7,11.5-2.7c48.8-12.1,55-13.8,83.4,0c28.4-13.8,34.6-12.1,83.4,0c3.9,1,7.8,1.9,11.5,2.7c2.5-3.7,4.7-7.6,6.7-11.7
		l31.8,18L370.5,237z"/>
	<linearGradient id="SVGID_1_" gradientUnits="userSpaceOnUse" x1="133.7057" y1="168.2065" x2="298.6219" y2="214.832">
		<stop  offset="0" style="stop-color:#56FBF1;stop-opacity:0.2"/>
		<stop  offset="1" style="stop-color:#926AFF"/>
	</linearGradient>
	<path class="st5" d="M312.2,169.1c-2,10.3-5.3,20.1-9.9,29.2c-2,4-4.3,7.9-6.7,11.7c-3.7-0.8-7.6-1.7-11.5-2.7
		c-48.8-12.1-55-13.8-83.4,0c-28.4-13.8-34.6-12.1-83.4,0c-3.9,1-7.7,1.9-11.5,2.7c-2.5-3.7-4.7-7.6-6.7-11.7
		c-6.8-13.5-10.9-28.5-11.8-44.4c18-6.4,47.7-11.3,77.9,8.3c15.4,10,26.6,17,35.8,21.7c19.6,10.2,29.7,10.4,50.6,9.8
		C282.2,192.9,312.2,169.1,312.2,169.1L312.2,169.1z"/>
	<linearGradient id="SVGID_2_" gradientUnits="userSpaceOnUse" x1="215.6477" y1="155.2076" x2="305.8767" y2="181.5424">
		<stop  offset="0" style="stop-color:#56FBF1;stop-opacity:0.5"/>
		<stop  offset="1" style="stop-color:#926AFF;stop-opacity:0.9"/>
	</linearGradient>
	<path class="st6" d="M314.3,148.8c-0.1,6.9-0.8,13.7-2,20.3h0c0,0-30,23.8-60.7,24.7c-20.9,0.6-31,0.4-50.6-9.8
		c57.2-7.2,58.8-18.3,89.9-30.3C299.2,150.4,307.1,149,314.3,148.8z"/>
	<g>
		<linearGradient id="SVGID_3_" gradientUnits="userSpaceOnUse" x1="359.7867" y1="185.7013" x2="95.5755" y2="66.5472">
			<stop  offset="0" style="stop-color:#94BFFF;stop-opacity:0.9"/>
			<stop  offset="0.1797" style="stop-color:#99C2FF;stop-opacity:0.8281"/>
			<stop  offset="0.3782" style="stop-color:#A6CAFF;stop-opacity:0.7487"/>
			<stop  offset="0.5856" style="stop-color:#BCD7FF;stop-opacity:0.6658"/>
			<stop  offset="0.7978" style="stop-color:#DBE9FF;stop-opacity:0.5809"/>
			<stop  offset="1" style="stop-color:#FFFFFF;stop-opacity:0.5"/>
		</linearGradient>
		<path class="st7" d="M314.3,147.5c0,0.4,0,0.9,0,1.3c-7.2,0.2-15.1,1.5-23.4,4.8c-31.1,12-32.7,23.1-89.9,30.3
			c-9.2-4.7-20.4-11.7-35.8-21.7c-30.2-19.7-59.8-14.8-77.9-8.3c-0.1-2.1-0.2-4.2-0.2-6.3C87.2,84.8,138,34,200.7,34
			C263.4,34,314.3,84.8,314.3,147.5z"/>
	</g>
	<path class="st8" d="M253.7,65.5c0,0,25.9,9.1,37.1,54.4"/>
	<g>
		<path class="st9" d="M228.1,232c0.9-0.4,1.6-0.5,2.4-0.7c0.7-0.2,1.5-0.4,2.2-0.5c1.5-0.3,3-0.5,4.4-0.7c2.9-0.3,5.9-0.5,8.8-0.4
			c1.5,0,2.9,0,4.4,0.1c1.5,0.1,2.9,0.1,4.4,0.3l4.3,0.4l4.3,0.6c11.5,1.6,22.6,4.6,33.6,7.9c10.9,3.3,22,5.9,33.3,7.6
			c5.6,0.8,11.3,1.4,17,1.6c2.8,0.1,5.7,0.1,8.6,0c2.8-0.1,5.7-0.3,8.5-0.8c-2.8,0.6-5.6,0.9-8.5,1.1c-2.9,0.2-5.7,0.3-8.6,0.3
			c-5.7,0-11.5-0.4-17.2-1c-11.4-1.3-22.7-3.5-33.8-6.4c-11-2.9-22.1-5.5-33.4-6.6l-4.2-0.4l-4.2-0.2c-1.4-0.1-2.8-0.1-4.2-0.1
			c-1.4,0-2.8,0-4.2,0.1c-2.8,0.1-5.6,0.3-8.3,0.7c-1.4,0.2-2.7,0.4-4,0.8c-0.7,0.1-1.3,0.3-1.9,0.5c-0.6,0.2-1.3,0.4-1.7,0.6
			L228.1,232z"/>
	</g>
	<g>
		<path class="st9" d="M172.9,236.6c-0.4-0.2-1.1-0.4-1.7-0.6c-0.6-0.2-1.3-0.4-1.9-0.5c-1.3-0.3-2.7-0.5-4-0.8
			c-2.7-0.4-5.5-0.6-8.3-0.7c-1.4,0-2.8-0.1-4.2-0.1c-1.4,0-2.8,0-4.2,0.1l-4.2,0.2l-4.2,0.4c-11.3,1.1-22.3,3.7-33.4,6.6
			c-11.1,2.9-22.4,5.1-33.8,6.4c-5.7,0.6-11.4,1-17.2,1c-2.9,0-5.7-0.1-8.6-0.3c-2.9-0.2-5.7-0.5-8.5-1.1c2.8,0.5,5.7,0.7,8.5,0.8
			c2.8,0.1,5.7,0.1,8.6,0c5.7-0.2,11.4-0.8,17-1.6c11.3-1.7,22.4-4.3,33.3-7.6c10.9-3.3,22.1-6.3,33.6-7.9l4.3-0.6l4.3-0.4
			c1.4-0.2,2.9-0.2,4.4-0.3c1.5-0.1,2.9-0.1,4.4-0.1c2.9,0,5.9,0.2,8.8,0.4c1.5,0.2,2.9,0.4,4.4,0.7c0.7,0.1,1.5,0.3,2.2,0.5
			c0.8,0.2,1.4,0.4,2.4,0.7L172.9,236.6z"/>
	</g>
</g>
<line class="st10" x1="223.5" y1="296.6" x2="215.1" y2="288"/>
<line class="st10" x1="223.5" y1="296.6" x2="215.1" y2="305"/>
<g>
	<rect x="122.5" y="105.3" class="st11" width="6.7" height="6.7"/>
	<rect x="133.1" y="105.3" class="st11" width="6.7" height="6.7"/>
	<rect x="143.3" y="105.5" class="st11" width="6.7" height="6.7"/>
	<rect x="122.5" y="115.7" class="st11" width="6.7" height="6.7"/>
	<rect x="133.1" y="115.7" class="st11" width="6.7" height="6.7"/>
	<rect x="143.3" y="115.9" class="st11" width="6.7" height="6.7"/>
	<g>
		<rect x="122.5" y="125.9" class="st11" width="6.7" height="6.7"/>
		<rect x="133.1" y="125.9" class="st11" width="6.7" height="6.7"/>
		<rect x="143.3" y="126.1" class="st11" width="6.7" height="6.7"/>
	</g>
	<g>
		<rect x="166.9" y="126.3" class="st11" width="6.7" height="6.7"/>
		<rect x="177.4" y="126.3" class="st11" width="6.7" height="6.7"/>
		<rect x="187.6" y="126.5" class="st11" width="6.7" height="6.7"/>
	</g>
	<g>
		<rect x="250.9" y="126.3" class="st12" width="6.7" height="6.7"/>
		<rect x="261.4" y="126.3" class="st12" width="6.7" height="6.7"/>
		<rect x="271.6" y="126.5" class="st12" width="6.7" height="6.7"/>
	</g>
	<polygon class="st11" points="164,129.9 155.6,138.3 155.5,138.3 155.5,121.3 155.6,121.3 	"/>
	<g>
		<g>
			<rect x="203.6" y="126.8" class="st13" width="15.9" height="5.3"/>
			<path class="st13" d="M240.1,123.2L240.1,123.2l-0.1,3.5h-6c2.5-2.8,4-6.4,4-10.4c0-6.8-4.4-12.7-10.4-14.9
				c-0.3-0.1-0.6-0.2-0.9-0.3c-1.4-0.4-2.9-0.6-4.5-0.6c-0.9,0-1.7,0.1-2.6,0.2c-1.2,0.2-2.3,0.5-3.4,1c-5.7,2.4-9.8,8-9.8,14.6
				c0,1,0.1,2,0.3,3l-3.4,1.2l0,0.1l7.6,3.6l3.7-7.6l0-0.1l-2.8,1c0-0.4-0.1-0.8-0.1-1.2c0-5.8,4.7-10.5,10.5-10.5
				c5.8,0,10.5,4.7,10.5,10.5c0,5.5-4.2,10-9.6,10.4h-2.6v5.3H240v3.1h0.1l5.9-5.9L240.1,123.2z"/>
		</g>
		<path class="st11" d="M233.9,91.6l-2.4,4.3l-4.4-2.4l0,0l1.7-0.5c-0.1-0.2-0.2-0.4-0.4-0.6c-2-2.8-5.8-3.4-8.6-1.5
			c-2.8,2-3.4,5.8-1.5,8.6c0.3,0.5,0.8,0.9,1.2,1.3c-1.2,0.2-2.3,0.5-3.4,1c-0.1-0.1-0.2-0.3-0.3-0.5c-3-4.2-2-10,2.2-12.9
			c4.2-3,10-2,12.9,2.2c0.3,0.5,0.6,1,0.9,1.5L233.9,91.6L233.9,91.6z"/>
	</g>
</g>
</svg>
