<?xml version="1.0" encoding="utf-8"?>
<!-- Generator: Adobe Illustrator 22.0.0, SVG Export Plug-In . SVG Version: 6.00 Build 0)  -->
<svg version="1.1" id="图层_1" xmlns="http://www.w3.org/2000/svg" xmlns:xlink="http://www.w3.org/1999/xlink" x="0px" y="0px"
	 viewBox="0 0 400 300" style="enable-background:new 0 0 400 300;" xml:space="preserve">
<style type="text/css">
	.st0{fill:#FFFFFF;stroke:#808080;stroke-linecap:round;stroke-linejoin:round;stroke-miterlimit:10;}
	.st1{fill:none;stroke:#808080;stroke-linecap:round;stroke-linejoin:round;stroke-miterlimit:10;}
	.st2{fill:#FFFFFF;stroke:#B3B3B3;stroke-width:2;stroke-linecap:round;stroke-linejoin:round;stroke-miterlimit:10;}
	.st3{fill:#FFFFFF;stroke:#EE5586;stroke-width:2;stroke-linecap:round;stroke-linejoin:round;stroke-miterlimit:10;}
	.st4{fill:#FFFFFF;stroke:#0FA0A8;stroke-width:2;stroke-linecap:round;stroke-linejoin:round;stroke-miterlimit:10;}
	.st5{fill:#FFFFFF;stroke:#017CC0;stroke-width:2;stroke-linecap:round;stroke-linejoin:round;stroke-miterlimit:10;}
	.st6{fill:none;stroke:#EE5586;stroke-linecap:round;stroke-linejoin:round;stroke-miterlimit:10;}
	.st7{fill:#EE5586;}
	.st8{fill:#017CC0;}
	.st9{fill:#0FA0A8;}
	.st10{fill:#099CDB;}
</style>
<path class="st0" d="M138.1,99l87.8-50.7L313.7,99v101.4L225.9,251l-87.8-50.6L138.1,99z"/>
<line class="st1" x1="241.4" y1="157" x2="302.7" y2="192.4"/>
<line class="st1" x1="150.7" y1="104.4" x2="211.9" y2="139.9"/>
<line class="st1" x1="211.1" y1="158" x2="148.9" y2="192.8"/>
<line class="st1" x1="302.1" y1="106.8" x2="240.6" y2="141.5"/>
<line class="st1" x1="225.9" y1="167" x2="225.9" y2="235.5"/>
<line class="st1" x1="313.7" y1="115.4" x2="313.7" y2="184.4"/>
<line class="st1" x1="225.9" y1="64.2" x2="225.9" y2="133"/>
<circle class="st2" cx="225.9" cy="150" r="24.6"/>
<circle class="st3" cx="317.2" cy="98.5" r="51.3"/>
<circle class="st0" cx="225.9" cy="47" r="38.8"/>
<circle class="st0" cx="134.5" cy="98.5" r="17"/>
<circle class="st0" cx="134.5" cy="200.9" r="17"/>
<circle class="st4" cx="225.9" cy="252.5" r="34.9"/>
<path id="svg-concept_1_" class="st5" d="M341.3,200.9c0,13.3-10.8,24.1-24.1,24.1s-24.1-10.8-24.1-24.1s10.8-24.1,24.1-24.1
	S341.3,187.6,341.3,200.9z"/>
<g>
	<path id="svg-concept_9_" class="st3" d="M255.6,134.6c0,1-0.8,1.8-1.8,1.8c-1,0-1.8-0.8-1.8-1.8s0.8-1.8,1.8-1.8
		S255.6,133.6,255.6,134.6z"/>
</g>
<g>
	<path class="st0" d="M160.6,202.7c0,11.4-27.8,20.6-62.1,20.6s-62.1-9.2-62.1-20.6v-41.4c0-11.4,27.8-20.6,62.1-20.6
		s62.1,9.2,62.1,20.6V202.7z"/>
	<path id="svg-concept_2_" class="st6" d="M138,200.1c0,3.1-2.6,5.7-5.7,5.7c-3.1,0-5.7-2.6-5.7-5.7c0-3.1,2.6-5.7,5.7-5.7
		C135.5,194.4,138,197,138,200.1z"/>
	<path class="st1" d="M160.6,161.3c0,11.4-27.8,20.6-62.1,20.6s-62.1-9.2-62.1-20.6"/>
</g>
<g>
	<path class="st0" d="M160.6,161.6c0,11.4-27.8,20.6-62.1,20.6s-62.1-9.2-62.1-20.6v-41.4c0-11.4,27.8-20.6,62.1-20.6
		s62.1,9.2,62.1,20.6V161.6z"/>
	<path id="svg-concept_3_" class="st6" d="M138,159c0,3.1-2.6,5.7-5.7,5.7c-3.1,0-5.7-2.6-5.7-5.7c0-3.1,2.6-5.7,5.7-5.7
		C135.5,153.2,138,155.8,138,159z"/>
	<path class="st1" d="M160.6,120.2c0,11.4-27.8,20.6-62.1,20.6s-62.1-9.2-62.1-20.6"/>
</g>
<g>
	<path class="st0" d="M160.6,120.3c0,11.4-27.8,20.6-62.1,20.6s-62.1-9.2-62.1-20.6V78.9c0-11.4,27.8-20.6,62.1-20.6
		s62.1,9.2,62.1,20.6V120.3z"/>
	<path id="svg-concept_5_" class="st6" d="M138,117.7c0,3.1-2.6,5.7-5.7,5.7c-3.1,0-5.7-2.6-5.7-5.7s2.6-5.7,5.7-5.7
		C135.5,112,138,114.6,138,117.7z"/>
	<path class="st1" d="M160.6,78.9c0,11.4-27.8,20.6-62.1,20.6s-62.1-9.2-62.1-20.6"/>
</g>
<path id="svg-concept_4_" class="st6" d="M103.5,251.2c0,3.5-2.9,6.4-6.4,6.4s-6.4-2.9-6.4-6.4s2.8-6.4,6.4-6.4
	C100.6,244.8,103.5,247.6,103.5,251.2z M97,232v12.8 M54.9,251.2h35.7 M103.5,251.2h35.7"/>
<g>
	<path id="svg-concept_6_" class="st3" d="M273.8,174.6c0,1-0.8,1.8-1.8,1.8c-1,0-1.8-0.8-1.8-1.8s0.8-1.8,1.8-1.8
		C272.9,172.8,273.8,173.6,273.8,174.6z"/>
</g>
<g>
	<path id="svg-concept_7_" class="st3" d="M128.4,251.2c0,1-0.8,1.8-1.8,1.8c-1,0-1.8-0.8-1.8-1.8s0.8-1.8,1.8-1.8
		C127.6,249.3,128.4,250.1,128.4,251.2z"/>
</g>
<g>
	<path id="svg-concept_8_" class="st3" d="M227,101.7c0,1-0.8,1.8-1.8,1.8c-1,0-1.8-0.8-1.8-1.8s0.8-1.8,1.8-1.8
		C226.1,99.8,227,100.6,227,101.7z"/>
</g>
<g>
	<path id="svg-concept_11_" class="st3" d="M175.8,221.4c0,1-0.8,1.8-1.8,1.8s-1.8-0.8-1.8-1.8s0.8-1.8,1.8-1.8
		C175,219.6,175.8,220.4,175.8,221.4z"/>
</g>
<path class="st7" d="M327.2,64.7l0.9,4.7c1.5,0.5,2.9,1.2,4.2,1.9l4.1-2.5l4.1,3l-1.1,4.7c1.1,1.1,2.1,2.2,3.1,3.4l4.8-0.6l2.5,4.3
	l-2.9,3.9c0.6,1.4,1,2.9,1.4,4.3l4.7,1.5l0.5,5l-4.3,2.4c-0.1,1.5-0.2,3-0.5,4.4l3.7,3.3l-1.6,4.8l-5,0.5c-0.7,1.3-1.4,2.6-2.2,3.8
	l2.1,4.6l-3.4,3.7l-4.8-1.6c-1.1,0.9-2.3,1.8-3.5,2.5l0.1,5.1l-4.6,2l-3.8-3.5c-1.4,0.4-2.8,0.7-4.2,0.9l-2,4.7l-5,0l-2-4.7
	c-0.7-0.1-1.4-0.2-2.1-0.4c-0.7-0.1-1.4-0.3-2.1-0.5l-3.8,3.5l-4.6-2l0.1-5.1c-1.2-0.8-2.4-1.6-3.5-2.5l-4.8,1.6l-3.4-3.7l2.1-4.6
	c-0.8-1.2-1.5-2.4-2.2-3.7l-5.1-0.5l-1.5-4.8l3.8-3.3c-0.3-1.4-0.4-2.9-0.5-4.4l-4.4-2.5l0.5-5l4.8-1.5c0.4-1.5,0.8-2.9,1.4-4.3
	l-3-4l2.5-4.3l4.9,0.6c0.9-1.2,2-2.3,3-3.4l-1.1-4.8l4.1-2.9l4.2,2.5c1.4-0.7,2.8-1.4,4.2-1.9l1-4.7l4.9-1l2.8,3.9
	c1.5-0.1,3.1-0.1,4.6,0l2.8-3.9L327.2,64.7L327.2,64.7z M312,124.4c13.7,2.9,27.1-5.8,30.1-19.5c2.9-13.7-5.8-27.1-19.5-30.1
	c-13.7-2.9-27.1,5.8-30.1,19.5C289.5,108,298.3,121.4,312,124.4z"/>
<path class="st7" d="M326.7,88.6h8.5c1,0,1.8,0.8,1.8,1.8v18.9c0,1-0.8,1.8-1.8,1.8h-8.5c-1,0-1.8-0.8-1.8-1.8V90.4
	C324.9,89.4,325.7,88.6,326.7,88.6L326.7,88.6z M299.3,88.6h22.8c1,0,1.8,0.8,1.8,1.8v15.3c0,1-0.8,1.8-1.8,1.8h-22.8
	c-1,0-1.8-0.8-1.8-1.8V90.4C297.4,89.4,298.3,88.6,299.3,88.6L299.3,88.6z M321.2,91.5h-21v13.1h21V91.5L321.2,91.5z M299.4,89.8
	c-0.5,0-0.8,0.4-0.8,0.8v14.7c0,0.5,0.4,0.8,0.8,0.8H322c0.5,0,0.8-0.4,0.8-0.8V90.6c0-0.5-0.4-0.8-0.8-0.8H299.4L299.4,89.8z
	 M304.9,108.7h11.2c0,0.8,0,0.3,0,1.2h3.3c0.4,0,0.7,0.3,0.7,0.7v0.5h-19.3v-0.5c0-0.4,0.3-0.7,0.7-0.7h3.3
	C304.9,109,304.9,109.5,304.9,108.7L304.9,108.7z M327.8,98.4v0.8h6.2v-0.8H327.8L327.8,98.4z M327.8,103v0.8h6.2V103H327.8
	L327.8,103z M327.8,100.7v0.8h6.2v-0.8H327.8L327.8,100.7z M327.7,91.4c-0.4,0-0.7,0.3-0.7,0.7v1.4c0,0.4,0.3,0.7,0.7,0.7h6.5
	c0.4,0,0.7-0.3,0.7-0.7v-1.4c0-0.4-0.3-0.7-0.7-0.7H327.7L327.7,91.4z M330.9,106.4c-0.7,0-1.3,0.6-1.3,1.3c0,0.7,0.6,1.3,1.3,1.3
	c0.7,0,1.3-0.6,1.3-1.3C332.3,107,331.7,106.4,330.9,106.4z"/>
<path class="st8" d="M317.4,185.5l1.1,2.4c1,0.2,2,0.4,2.9,0.8l2.2-1.5l2.4,1.6l-0.5,2.6c0.7,0.7,1.3,1.5,1.8,2.3l2.7,0.1l1,2.8
	l-2,1.8c0.1,0.5,0.1,1,0.1,1.5c0,0.5,0,1,0,1.5l2.1,1.7l-0.8,2.8l-2.7,0.3c-0.5,0.9-1,1.7-1.7,2.5l0.7,2.6l-2.3,1.8l-2.3-1.3
	c-0.9,0.4-1.8,0.8-2.8,1l-0.9,2.5l-2.9,0.1l-1.1-2.4c-1-0.2-2-0.4-2.9-0.8l-2.2,1.5l-2.4-1.6l0.5-2.6c-0.7-0.7-1.3-1.5-1.8-2.3
	l-2.7-0.1l-1-2.8l2-1.8c-0.1-0.5-0.1-1-0.1-1.5c0-0.5,0-1,0-1.5l-2.1-1.7l0.8-2.8l2.7-0.3c0.5-0.9,1-1.7,1.7-2.5l-0.7-2.6l2.3-1.8
	l2.3,1.3c0.9-0.4,1.8-0.8,2.8-1l0.9-2.5L317.4,185.5L317.4,185.5z M316.8,210.7c5.6-0.2,10-4.9,9.8-10.5c-0.2-5.6-4.9-10-10.5-9.8
	c-5.6,0.2-10,4.9-9.8,10.5C306.5,206.5,311.2,210.9,316.8,210.7z"/>
<path class="st8" d="M318.7,198.3c-0.5-0.5-0.9-1.2-0.5-1.6l1.6-1.6l-0.2-0.2c-0.7-0.7-2.9,0.5-3.7,1.6c-0.4,0.6-0.5,1.4,0.1,2.1
	l-5.1,5.1c-0.2,0.2-0.3,0.4-0.3,0.7c-0.1,1,1,2.1,2,2c0.2,0,0.5-0.1,0.7-0.3l5.1-5.1c0.6,0.6,1.5,0.5,2.1,0c1.1-0.8,2.3-3,1.6-3.7
	l-0.2-0.2l-1.6,1.6C320,199.1,319.2,198.8,318.7,198.3L318.7,198.3z M322.1,204.5c-0.2,0.4-0.5,0.7-0.8,1l0,0
	c-0.3,0.3-0.6,0.5-1,0.7c-0.2,0.1-0.5,0.2-0.7,0.1c-0.2,0-0.5-0.1-0.7-0.3l0,0l0,0l-2.4-2.4l0.4-0.4l2.4,2.4l0,0
	c0.1,0.1,0.2,0.2,0.3,0.2c0.1,0,0.1,0,0.2,0l-2.7-2.7l1.4-1.4c0.1,0.1,0.3,0.1,0.4,0.2l2.6,2.6c0.1-0.1,0.1-0.2,0.2-0.3
	c0.1-0.1,0.1-0.2,0.1-0.4c0-0.1-0.1-0.2-0.2-0.3l-1.6-1.6c0.2,0,0.4-0.1,0.6-0.2l1.4,1.4c0.2,0.2,0.3,0.4,0.3,0.7
	C322.2,204,322.2,204.3,322.1,204.5L322.1,204.5z M314.5,199.4l-1.5-1.5l-0.6,0l-1.7-2.1l0.9-0.9l2.1,1.7l0,0.6l1,1l0.6,0.6
	L314.5,199.4L314.5,199.4z M311.8,205.3c-0.5-0.5-0.5-1.2,0-1.7c0.5-0.5,1.2-0.5,1.7,0c0.5,0.5,0.5,1.2,0,1.7
	C313,205.7,312.2,205.7,311.8,205.3z"/>
<path class="st9" d="M234.5,227.5l1.1,5.8c2.6,1.3,4.8,3.1,6.6,5.2l6-0.4l2.9,5.9l-4.1,4.8c0.4,2.5,0.4,5-0.1,7.6l4.4,4.9l-2.8,6
	l-7-0.2c-1.5,1.6-3.3,3-5.2,4.1l-1.2,7.1l-6.4,1.6l-4.4-5.9c-1-0.1-2-0.2-3.1-0.4c-1-0.2-2-0.5-3-0.9l-6.5,3.6l-5.2-4l1.8-7
	c-1.3-1.8-2.4-3.8-3.1-5.9l-6.5-2.7l-0.1-6.6l6-2.7c0.6-2.6,1.7-4.9,3-7l-1.8-6.1l5.1-4.2l5.3,2.8c2.5-1.2,5.3-1.9,8.1-2.1l3.4-4.8
	L234.5,227.5L234.5,227.5z M222.5,268.4c8.8,1.9,17.5-3.7,19.4-12.6c1.9-8.8-3.7-17.5-12.6-19.4c-8.8-1.9-17.5,3.7-19.4,12.6
	C208,257.9,213.6,266.5,222.5,268.4z"/>
<path class="st9" d="M232.3,260.4h-1.1l0,0v1.4c0,0.8-1.3,0.8-1.3,0v-1.4v0h-3.5l0,0v1.4c0,0.8-1.3,0.8-1.3,0v-1.4l0,0h-3.5v0v1.4
	c0,0.8-1.3,0.8-1.3,0v-1.4v0h-1.1c-0.8,0-1.4-0.6-1.4-1.4v-1.1h0h-1.4c-0.8,0-0.8-1.3,0-1.3h1.4h0v-3.5h0h-1.4c-0.8,0-0.8-1.3,0-1.3
	h1.4h0v-3.5h0h-1.4c-0.8,0-0.8-1.3,0-1.3h1.4h0V246c0-0.8,0.6-1.4,1.4-1.4h1.1v0v-1.4c0-0.8,1.3-0.8,1.3,0v1.4v0h3.5l0,0v-1.4
	c0-0.8,1.3-0.8,1.3,0v1.4l0,0h3.5v0v-1.4c0-0.8,1.3-0.8,1.3,0v1.4l0,0h1.1c0.8,0,1.4,0.6,1.4,1.4v1.1h0h1.4c0.8,0,0.8,1.3,0,1.3
	h-1.4h0v3.5h0h1.4c0.8,0,0.8,1.3,0,1.3h-1.4h0v3.5h0h1.4c0.8,0,0.8,1.3,0,1.3h-1.4h0v1.1C233.8,259.7,233.1,260.4,232.3,260.4
	L232.3,260.4z M231.3,246.8h-10.9c-0.1,0-0.2,0.1-0.2,0.2v10.9c0,0.1,0.1,0.2,0.2,0.2h10.9c0.1,0,0.2-0.1,0.2-0.2V247
	C231.5,246.9,231.4,246.8,231.3,246.8L231.3,246.8z M232.8,259.2v-13.4c0-0.1-0.1-0.2-0.2-0.2h-13.4c-0.1,0-0.2,0.1-0.2,0.2v13.4
	c0,0.1,0.1,0.2,0.2,0.2h13.4C232.7,259.4,232.8,259.3,232.8,259.2z"/>
<path class="st10" d="M234.8,18.9l1,5.2c1.8,0.8,3.5,1.8,5,2.9l5-1.8l3.8,4.3l-2.3,4.8c1,1.7,1.8,3.4,2.4,5.3l5,1.5l0.6,5.7
	l-4.6,2.5c-0.1,1-0.2,1.9-0.4,2.9c-0.2,1-0.5,1.9-0.8,2.8l3.2,4.2l-2.9,5l-5.2-0.7c-1.3,1.5-2.7,2.8-4.3,3.9l0.1,5.3l-5.3,2.3
	l-3.8-3.6c-1.9,0.4-3.8,0.6-5.8,0.6l-3,4.3l-5.6-1.2l-1-5.2c-1.8-0.8-3.5-1.8-5-2.9l-5,1.8l-3.8-4.3l2.3-4.8c-1-1.7-1.8-3.4-2.4-5.3
	l-5-1.5l-0.6-5.7l4.6-2.5c0.1-1,0.2-1.9,0.4-2.9c0.2-1,0.5-1.9,0.8-2.8l-3.2-4.2l2.9-5l5.2,0.7c1.3-1.5,2.7-2.8,4.3-3.9l-0.1-5.3
	l5.3-2.3l3.8,3.6c1.9-0.4,3.8-0.6,5.8-0.6l3-4.3L234.8,18.9L234.8,18.9z M221.7,66.5c10.8,2.3,21.4-4.6,23.7-15.4
	c2.3-10.8-4.6-21.4-15.4-23.7c-10.8-2.3-21.4,4.6-23.7,15.4C204,53.6,210.9,64.2,221.7,66.5z"/>
<path class="st10" d="M225.9,43.2c-2.1,0-3.8,1.7-3.8,3.8c0,2.1,1.7,3.8,3.8,3.8c2.1,0,3.8-1.7,3.8-3.8
	C229.7,44.9,228,43.2,225.9,43.2z M225.9,49.1c-1.2,0-2.1-0.9-2.1-2.1c0-1.2,0.9-2.1,2.1-2.1c1.2,0,2.1,0.9,2.1,2.1
	C228,48.2,227,49.1,225.9,49.1z M225.9,43.2c-2.1,0-3.8,1.7-3.8,3.8c0,2.1,1.7,3.8,3.8,3.8c2.1,0,3.8-1.7,3.8-3.8
	C229.7,44.9,228,43.2,225.9,43.2z M225.9,49.1c-1.2,0-2.1-0.9-2.1-2.1c0-1.2,0.9-2.1,2.1-2.1c1.2,0,2.1,0.9,2.1,2.1
	C228,48.2,227,49.1,225.9,49.1z M225.9,43.2c-2.1,0-3.8,1.7-3.8,3.8c0,2.1,1.7,3.8,3.8,3.8c2.1,0,3.8-1.7,3.8-3.8
	C229.7,44.9,228,43.2,225.9,43.2z M225.9,49.1c-1.2,0-2.1-0.9-2.1-2.1c0-1.2,0.9-2.1,2.1-2.1c1.2,0,2.1,0.9,2.1,2.1
	C228,48.2,227,49.1,225.9,49.1z M225.9,43.2c-2.1,0-3.8,1.7-3.8,3.8c0,2.1,1.7,3.8,3.8,3.8c2.1,0,3.8-1.7,3.8-3.8
	C229.7,44.9,228,43.2,225.9,43.2z M225.9,49.1c-1.2,0-2.1-0.9-2.1-2.1c0-1.2,0.9-2.1,2.1-2.1c1.2,0,2.1,0.9,2.1,2.1
	C228,48.2,227,49.1,225.9,49.1z M225.9,43.2c-2.1,0-3.8,1.7-3.8,3.8c0,2.1,1.7,3.8,3.8,3.8c2.1,0,3.8-1.7,3.8-3.8
	C229.7,44.9,228,43.2,225.9,43.2z M225.9,49.1c-1.2,0-2.1-0.9-2.1-2.1c0-1.2,0.9-2.1,2.1-2.1c1.2,0,2.1,0.9,2.1,2.1
	C228,48.2,227,49.1,225.9,49.1z M225.9,43.2c-2.1,0-3.8,1.7-3.8,3.8c0,2.1,1.7,3.8,3.8,3.8c2.1,0,3.8-1.7,3.8-3.8
	C229.7,44.9,228,43.2,225.9,43.2z M225.9,49.1c-1.2,0-2.1-0.9-2.1-2.1c0-1.2,0.9-2.1,2.1-2.1c1.2,0,2.1,0.9,2.1,2.1
	C228,48.2,227,49.1,225.9,49.1z M225.9,43.2c-2.1,0-3.8,1.7-3.8,3.8c0,2.1,1.7,3.8,3.8,3.8c2.1,0,3.8-1.7,3.8-3.8
	C229.7,44.9,228,43.2,225.9,43.2z M225.9,49.1c-1.2,0-2.1-0.9-2.1-2.1c0-1.2,0.9-2.1,2.1-2.1c1.2,0,2.1,0.9,2.1,2.1
	C228,48.2,227,49.1,225.9,49.1z M225.9,43.2c-2.1,0-3.8,1.7-3.8,3.8c0,2.1,1.7,3.8,3.8,3.8c2.1,0,3.8-1.7,3.8-3.8
	C229.7,44.9,228,43.2,225.9,43.2z M225.9,49.1c-1.2,0-2.1-0.9-2.1-2.1c0-1.2,0.9-2.1,2.1-2.1c1.2,0,2.1,0.9,2.1,2.1
	C228,48.2,227,49.1,225.9,49.1z M225.9,43.2c-2.1,0-3.8,1.7-3.8,3.8c0,2.1,1.7,3.8,3.8,3.8c2.1,0,3.8-1.7,3.8-3.8
	C229.7,44.9,228,43.2,225.9,43.2z M225.9,49.1c-1.2,0-2.1-0.9-2.1-2.1c0-1.2,0.9-2.1,2.1-2.1c1.2,0,2.1,0.9,2.1,2.1
	C228,48.2,227,49.1,225.9,49.1z"/>
<path class="st10" d="M225.9,35.1c-6.6,0-11.9,5.3-11.9,11.9c0,6.6,5.3,11.9,11.9,11.9c6.6,0,11.9-5.3,11.9-11.9
	C237.7,40.4,232.4,35.1,225.9,35.1z M223.4,57.8c-1.1-0.3-2.2-0.8-3.2-1.4l2.6-4.6c0.7,0.4,1.3,0.7,2,0.9L223.4,57.8z M225.9,52
	c-2.8,0-5-2.2-5-5c0-2.8,2.2-5,5-5c2.8,0,5,2.2,5,5C230.9,49.8,228.6,52,225.9,52z M228.9,42.1c-0.6-0.4-1.3-0.7-2-0.9l1.4-5.1
	c1.1,0.3,2.2,0.8,3.2,1.4L228.9,42.1z"/>
<path class="st9" d="M214.3,159.1c-3.2,0-5.7-2.6-5.7-5.7c0-2.9,2.1-5.2,4.9-5.7c0.5-4,3.9-7.1,8.1-7.1c2.8,0,5.2,1.4,6.7,3.4
	c0.5-0.2,1.1-0.2,1.6-0.2c2.5,0,4.6,1.6,5.4,3.9c2.9,0.3,5.1,2.7,5.1,5.7c0,3.2-2.6,5.7-5.7,5.7L214.3,159.1L214.3,159.1z
	 M212.8,153.9c0-0.9,0.3-1.7,0.9-2.4c0.6-0.6,1.3-1.1,2.2-1.2c0.5-0.1,0.9-0.6,0.8-1.1c-0.1-0.5-0.6-0.9-1.1-0.8
	c-1.3,0.2-2.5,0.9-3.4,1.9c-0.8,1-1.3,2.2-1.3,3.6c0,0.5,0.4,1,1,1S212.8,154.4,212.8,153.9L212.8,153.9z M218.6,145.4
	c0.5-0.5,1.1-0.9,1.8-1.2c0.7-0.3,1.4-0.4,2.1-0.4c0.5,0,1-0.4,1-1c0-0.5-0.4-1-1-1c-1,0-2,0.2-2.9,0.6c-0.9,0.4-1.7,0.9-2.4,1.6
	c-0.4,0.4-0.4,1,0,1.4C217.6,145.8,218.2,145.8,218.6,145.4L218.6,145.4z M235.4,148.6c-0.2-0.1-0.5-0.1-0.7-0.2
	c-0.2,0-0.5-0.1-0.7-0.1c-0.5,0-1,0.1-1.5,0.2c-0.5,0.2-1,0.4-1.4,0.7l0,0c-0.2,0.1-0.3,0.2-0.4,0.4c-0.1,0.1-0.3,0.3-0.4,0.4
	c-0.2,0.2-0.4,0.5-0.5,0.7v0c-0.2,0.3-0.3,0.5-0.4,0.8c-0.1,0.4,0.1,0.9,0.5,1.1c0.4,0.1,0.9-0.1,1.1-0.5c0.1-0.2,0.1-0.4,0.2-0.5h0
	c0.1-0.2,0.2-0.3,0.3-0.5c0.1-0.1,0.2-0.2,0.3-0.3c0.1-0.1,0.2-0.2,0.3-0.2h0c0.3-0.2,0.6-0.3,0.9-0.4c0.3-0.1,0.6-0.2,1-0.2
	c0.2,0,0.3,0,0.5,0c0.2,0,0.3,0.1,0.4,0.1c0.4,0.1,0.9-0.1,1-0.6C236.1,149.2,235.9,148.7,235.4,148.6L235.4,148.6z M241,143.8
	c0.1,0.3,0.5,0.5,0.8,0.4l0.8-0.2c0.2,0,0.3-0.2,0.4-0.3c0.1-0.2,0.1-0.3,0-0.5c-1.9-5.9-8-9.4-14.1-8.1c-0.2,0-0.3,0.1-0.4,0.3
	c-0.1,0.2-0.1,0.3-0.1,0.5l0.2,0.8c0.1,0.3,0.4,0.5,0.8,0.5C234.5,136.1,239.4,139,241,143.8L241,143.8z M237.3,144.8
	c0.1,0.3,0.5,0.5,0.8,0.4l0.8-0.2c0.2,0,0.3-0.2,0.4-0.3s0.1-0.3,0-0.5c-1.4-3.8-5.4-6.1-9.4-5.4c-0.2,0-0.3,0.1-0.4,0.3
	c-0.1,0.2-0.1,0.3-0.1,0.5l0.2,0.8c0.1,0.3,0.4,0.5,0.7,0.5C233.4,140.3,236.3,142,237.3,144.8z"/>
</svg>
