<?xml version="1.0" encoding="utf-8"?>
<!-- Generator: Adobe Illustrator 22.0.0, SVG Export Plug-In . SVG Version: 6.00 Build 0)  -->
<svg version="1.1" xmlns="http://www.w3.org/2000/svg" xmlns:xlink="http://www.w3.org/1999/xlink" x="0px" y="0px"
	 viewBox="0 0 400 300" style="enable-background:new 0 0 400 300;" xml:space="preserve">
<style type="text/css">
	.st0{fill:#71C7D8;}
	.st1{fill:#E6E6E6;}
	.st2{fill:#191B16;}
	.st3{fill:#606060;}
	.st4{fill:#B1B1B1;}
	.st5{fill:#E1E1E1;}
	.st6{fill:#7F7F7F;}
	.st7{fill:#666666;}
</style>
<g id="bg">
	<g>
		<path class="st0" d="M399.5,86.2c-1.3-12.6-5.2-24.4-24.1-10.5c0.9,4,1.4,8.1,1.4,12.3c0,30.2-24.5,54.8-54.8,54.8
			c-11.1,0-21.4-3.3-30.1-9c-8.8,3.3-16.8,5.1-23.5,4.9c-24-0.5-42.5-7.6-79.1-52.6c-36.5-44.9-64.4-51.1-103.1,0
			c-38.7,51.1-53.5,163.6-33.5,163.6c20,0,24.7-18.8,38.3-51.9c-4.7-8.1-7.4-17.5-7.4-27.5c0-30.3,24.5-54.8,54.8-54.8
			c30.2,0,54.8,24.5,54.8,54.8c0,12.2-4,23.5-10.8,32.6c13.6,32.1,67.6,54.2,114.8,47.5c-0.4-1.3-0.7-2.6-0.7-4.1
			c0-7.1,5.7-12.8,12.8-12.8c6.2,0,11.4,4.4,12.5,10.3c7.9-3.2,15.3-7.5,21.9-13.1C393.9,188.9,401,101.1,399.5,86.2z M136.2,88
			c-7.1,0-12.8-5.7-12.8-12.8c0-7.1,5.7-12.8,12.8-12.8c7.1,0,12.8,5.7,12.8,12.8C148.9,82.3,143.2,88,136.2,88z"/>
		<path class="st1" d="M148.9,75.3c0,7.1-5.7,12.8-12.8,12.8c-7.1,0-12.8-5.7-12.8-12.8c0-7.1,5.7-12.8,12.8-12.8
			C143.2,62.5,148.9,68.2,148.9,75.3z"/>
		<path class="st1" d="M321.8,244c-7.8,3.2-16.1,5.3-24.6,6.6c-0.4-1.3-0.7-2.6-0.7-4.1c0-7.1,5.7-12.8,12.8-12.8
			C315.4,233.7,320.6,238.2,321.8,244z"/>
		<path class="st1" d="M193.1,170.4c0,12.2-4,23.5-10.8,32.6c-0.5-1.1-0.9-2.1-1.2-3.2c-15.3-45.8-76.4-35.5-90-2.2
			c0,0.1-0.1,0.2-0.1,0.3c-4.7-8.1-7.4-17.5-7.4-27.5c0-30.3,24.5-54.8,54.8-54.8C168.6,115.7,193.1,140.2,193.1,170.4z"/>
		<path class="st1" d="M376.8,88c0,30.2-24.5,54.8-54.8,54.8c-11.1,0-21.4-3.3-30.1-9c22.7-8.5,50.1-26.9,71.3-47.6
			c4.6-4.5,8.6-7.9,12.1-10.5C376.3,79.7,376.8,83.8,376.8,88z"/>
	</g>
</g>
<g id="computer">
	<g>
		<path class="st2" d="M354.3,200.8h-166V97.1c0-2.8,2.2-5,5-5h156c2.8,0,5,2.2,5,5V200.8z"/>
		<rect x="194.8" y="98.8" class="st3" width="153" height="95.4"/>
		<g>
			<path class="st4" d="M387.7,206.8v1.4c0,0.9-0.7,1.6-1.6,1.6H156.6c-0.9,0-1.6-0.7-1.6-1.6v-1.4H387.7z"/>
			<rect x="154.9" y="200.6" class="st5" width="232.7" height="6.2"/>
			<path class="st6" d="M289.3,203.6h-36c-1.1,0-2-0.9-2-2v-1h40v1C291.3,202.7,290.4,203.6,289.3,203.6z"/>
		</g>
		<g>
			<g>
				<path class="st1" d="M234.2,106.3h-33.7c-0.7,0-1.4-0.6-1.4-1.4l0,0c0-0.7,0.6-1.4,1.4-1.4h33.7c0.7,0,1.4,0.6,1.4,1.4l0,0
					C235.5,105.7,234.9,106.3,234.2,106.3z"/>
				<path class="st1" d="M234.2,110.4h-28.9c-0.7,0-1.4-0.6-1.4-1.4v0c0-0.7,0.6-1.4,1.4-1.4h28.9c0.7,0,1.4,0.6,1.4,1.4v0
					C235.5,109.8,234.9,110.4,234.2,110.4z"/>
				<path class="st1" d="M218.4,114.5h-13.1c-0.7,0-1.4-0.6-1.4-1.4l0,0c0-0.7,0.6-1.4,1.4-1.4h13.1c0.7,0,1.4,0.6,1.4,1.4l0,0
					C219.7,113.9,219.1,114.5,218.4,114.5z"/>
				<path class="st1" d="M225.5,118.5h-20.2c-0.7,0-1.4-0.6-1.4-1.4v0c0-0.7,0.6-1.4,1.4-1.4h20.2c0.7,0,1.4,0.6,1.4,1.4v0
					C226.9,117.9,226.3,118.5,225.5,118.5z"/>
				<path class="st1" d="M230.1,122.6h-24.8c-0.7,0-1.4-0.6-1.4-1.4l0,0c0-0.7,0.6-1.4,1.4-1.4h24.8c0.7,0,1.4,0.6,1.4,1.4l0,0
					C231.5,122,230.9,122.6,230.1,122.6z"/>
			</g>
			<g>
				<path class="st1" d="M338.1,105.9h-91.9c-0.7,0-1.4-0.6-1.4-1.4l0,0c0-0.7,0.6-1.4,1.4-1.4h91.9c0.7,0,1.4,0.6,1.4,1.4l0,0
					C339.4,105.3,338.8,105.9,338.1,105.9z"/>
				<path class="st1" d="M316.9,110H251c-0.7,0-1.4-0.6-1.4-1.4v0c0-0.7,0.6-1.4,1.4-1.4h65.9c0.7,0,1.4,0.6,1.4,1.4v0
					C318.3,109.3,317.7,110,316.9,110z"/>
				<path class="st1" d="M302.1,114H251c-0.7,0-1.4-0.6-1.4-1.4l0,0c0-0.7,0.6-1.4,1.4-1.4h51.1c0.7,0,1.4,0.6,1.4,1.4l0,0
					C303.4,113.4,302.8,114,302.1,114z"/>
				<path class="st1" d="M289.2,118.1H251c-0.7,0-1.4-0.6-1.4-1.4v0c0-0.7,0.6-1.4,1.4-1.4h38.2c0.7,0,1.4,0.6,1.4,1.4v0
					C290.6,117.5,290,118.1,289.2,118.1z"/>
				<path class="st1" d="M277.7,122.1H251c-0.7,0-1.4-0.6-1.4-1.4l0,0c0-0.7,0.6-1.4,1.4-1.4h26.7c0.7,0,1.4,0.6,1.4,1.4l0,0
					C279,121.5,278.4,122.1,277.7,122.1z"/>
				<path class="st1" d="M316.9,146.4H251c-0.7,0-1.4-0.6-1.4-1.4l0,0c0-0.7,0.6-1.4,1.4-1.4h65.9c0.7,0,1.4,0.6,1.4,1.4l0,0
					C318.3,145.8,317.7,146.4,316.9,146.4z"/>
				<path class="st1" d="M302.1,150.5H251c-0.7,0-1.4-0.6-1.4-1.4l0,0c0-0.7,0.6-1.4,1.4-1.4h51.1c0.7,0,1.4,0.6,1.4,1.4l0,0
					C303.4,149.9,302.8,150.5,302.1,150.5z"/>
				<path class="st1" d="M289.2,154.6H251c-0.7,0-1.4-0.6-1.4-1.4l0,0c0-0.7,0.6-1.4,1.4-1.4h38.2c0.7,0,1.4,0.6,1.4,1.4l0,0
					C290.6,154,290,154.6,289.2,154.6z"/>
				<path class="st1" d="M277.7,158.6H251c-0.7,0-1.4-0.6-1.4-1.4v0c0-0.7,0.6-1.4,1.4-1.4h26.7c0.7,0,1.4,0.6,1.4,1.4v0
					C279,158,278.4,158.6,277.7,158.6z"/>
				<path class="st1" d="M272.8,126.2h-26.7c-0.7,0-1.4-0.6-1.4-1.4v0c0-0.7,0.6-1.4,1.4-1.4h26.7c0.7,0,1.4,0.6,1.4,1.4v0
					C274.2,125.6,273.6,126.2,272.8,126.2z"/>
				<path class="st1" d="M277.7,130.2H251c-0.7,0-1.4-0.6-1.4-1.4l0,0c0-0.7,0.6-1.4,1.4-1.4h26.7c0.7,0,1.4,0.6,1.4,1.4l0,0
					C279,129.6,278.4,130.2,277.7,130.2z"/>
				<path class="st1" d="M289.2,134.3H251c-0.7,0-1.4-0.6-1.4-1.4l0,0c0-0.7,0.6-1.4,1.4-1.4h38.2c0.7,0,1.4,0.6,1.4,1.4l0,0
					C290.6,133.7,290,134.3,289.2,134.3z"/>
				<path class="st1" d="M297.7,138.3H251c-0.7,0-1.4-0.6-1.4-1.4l0,0c0-0.7,0.6-1.4,1.4-1.4h46.7c0.7,0,1.4,0.6,1.4,1.4l0,0
					C299,137.7,298.4,138.3,297.7,138.3z"/>
				<path class="st1" d="M306.5,142.4H251c-0.7,0-1.4-0.6-1.4-1.4l0,0c0-0.7,0.6-1.4,1.4-1.4h55.5c0.7,0,1.4,0.6,1.4,1.4l0,0
					C307.8,141.8,307.2,142.4,306.5,142.4z"/>
				<path class="st1" d="M276.2,182.9H251c-0.7,0-1.4-0.6-1.4-1.4l0,0c0-0.7,0.6-1.4,1.4-1.4h25.2c0.7,0,1.4,0.6,1.4,1.4l0,0
					C277.5,182.3,276.9,182.9,276.2,182.9z"/>
				<path class="st1" d="M270,187H251c-0.7,0-1.4-0.6-1.4-1.4l0,0c0-0.7,0.6-1.4,1.4-1.4H270c0.7,0,1.4,0.6,1.4,1.4l0,0
					C271.3,186.4,270.7,187,270,187z"/>
				<path class="st1" d="M263.8,191.1H251c-0.7,0-1.4-0.6-1.4-1.4l0,0c0-0.7,0.6-1.4,1.4-1.4h12.8c0.7,0,1.4,0.6,1.4,1.4l0,0
					C265.2,190.4,264.6,191.1,263.8,191.1z"/>
				<path class="st1" d="M330.4,162.7h-84.3c-0.7,0-1.4-0.6-1.4-1.4l0,0c0-0.7,0.6-1.4,1.4-1.4h84.3c0.7,0,1.4,0.6,1.4,1.4l0,0
					C331.8,162.1,331.2,162.7,330.4,162.7z"/>
				<path class="st1" d="M312.8,166.7H251c-0.7,0-1.4-0.6-1.4-1.4l0,0c0-0.7,0.6-1.4,1.4-1.4h61.7c0.7,0,1.4,0.6,1.4,1.4l0,0
					C314.1,166.1,313.5,166.7,312.8,166.7z"/>
				<path class="st1" d="M302.1,170.8H251c-0.7,0-1.4-0.6-1.4-1.4l0,0c0-0.7,0.6-1.4,1.4-1.4h51.1c0.7,0,1.4,0.6,1.4,1.4l0,0
					C303.4,170.2,302.8,170.8,302.1,170.8z"/>
				<path class="st1" d="M290.7,174.8H251c-0.7,0-1.4-0.6-1.4-1.4v0c0-0.7,0.6-1.4,1.4-1.4h39.7c0.7,0,1.4,0.6,1.4,1.4v0
					C292,174.2,291.4,174.8,290.7,174.8z"/>
				<path class="st1" d="M284.6,178.9H251c-0.7,0-1.4-0.6-1.4-1.4l0,0c0-0.7,0.6-1.4,1.4-1.4h33.5c0.7,0,1.4,0.6,1.4,1.4l0,0
					C285.9,178.3,285.3,178.9,284.6,178.9z"/>
			</g>
		</g>
	</g>
</g>
<g id="图层_3">
	<g>
		<path d="M13.8,88.1h7c4.4,0,7.7,1.2,7.7,5.2c0,1.9-1.1,3.9-3.6,4.5v0.1c3,0.6,4.6,2.1,4.6,4.9c0,4.3-3.5,6.2-8.1,6.2h-7.6V88.1z
			 M20.7,96.5c2.3,0,3.3-1,3.3-2.6c0-1.6-1-2.2-3.2-2.2h-2.1v4.7H20.7z M21.1,105.3c2.6,0,3.8-0.9,3.8-2.8c0-1.8-1.2-2.6-3.8-2.6
			h-2.5v5.4H21.1z"/>
		<path d="M32.7,104.6c0-3.6,3-5.4,10.5-5.9c-0.2-1.4-1.2-2.3-3.4-2.3c-1.5,0-3.1,0.6-4.9,1.5l-1.7-3.1c2.2-1.3,4.8-2.2,7.5-2.2
			c4.5,0,7.2,2.3,7.2,7.2v9.1h-3.9l-0.3-1.8h-0.1c-1.6,1.2-3.6,2.2-5.7,2.2C34.8,109.4,32.7,107.3,32.7,104.6z M43.2,104.2v-2.6
			c-4.7,0.2-5.9,1.3-5.9,2.6c0,1,0.9,1.5,2.2,1.5C40.9,105.7,42.1,105.1,43.2,104.2z"/>
		<path d="M51.8,107l2-3c2,1.2,4.2,1.9,6.4,1.9c1.8,0,2.5-0.6,2.5-1.4c0-0.9-0.8-1.2-3.9-1.9c-4.3-0.9-6.1-2.5-6.1-5
			c0-3,2.8-5,7.3-5c2.8,0,5.2,1.1,6.9,2.2l-2.1,2.8c-1.6-1-3.5-1.5-5.2-1.5c-1.5,0-2.2,0.5-2.2,1.3c0,0.9,1,1.1,3.7,1.7
			c4.9,1.1,6.3,2.5,6.3,5.1c0,2.9-2.8,5.1-7.9,5.1C56.7,109.4,53.8,108.3,51.8,107z"/>
		<path d="M78.3,96.8h-6.4v-3.7H83V109h-4.7V96.8z M77.3,87.7c0-1.7,1.3-2.9,3.1-2.9c1.8,0,3.1,1.2,3.1,2.9c0,1.7-1.3,2.9-3.1,2.9
			C78.6,90.6,77.3,89.4,77.3,87.7z"/>
		<path d="M90.8,101.1c0-5.3,4.3-8.4,9.2-8.4c2.5,0,4.6,0.9,6,2.2l-2.2,2.9c-1.2-0.9-2.3-1.3-3.5-1.3c-2.7,0-4.6,1.8-4.6,4.5
			c0,2.8,1.9,4.5,4.5,4.5c1.7,0,3-0.7,4.2-1.5l1.9,3c-1.9,1.6-4.4,2.4-6.6,2.4C94.7,109.4,90.8,106.3,90.8,101.1z"/>
	</g>
	<g>
		<path class="st7" d="M22.2,143.3c0,1-0.3,1.7-0.8,2.3c-0.6,0.6-1.3,0.8-2.3,0.8h-1.7v4h-1.4v-10.2H19c1,0,1.8,0.3,2.3,0.8
			C21.9,141.6,22.2,142.4,22.2,143.3z M20.8,143.3c0-0.8-0.2-1.3-0.5-1.5c-0.4-0.3-0.9-0.4-1.6-0.4h-1.4v3.9h1.4
			c0.7,0,1.2-0.1,1.6-0.4C20.6,144.6,20.8,144.1,20.8,143.3z"/>
		<path class="st7" d="M28.7,144.9c-0.8-0.1-1.4,0-1.9,0.3c-0.5,0.3-1,0.9-1.3,1.8v3.4h-1.2v-6.7h1.2v1.7c0.4-0.6,0.8-1.1,1.3-1.4
			c0.5-0.3,1.2-0.4,1.9-0.4V144.9z"/>
		<path class="st7" d="M37.3,147.1c0,1-0.3,1.9-1,2.5c-0.6,0.6-1.4,1-2.3,1c-0.9,0-1.6-0.3-2.3-1c-0.6-0.6-1-1.5-1-2.5
			c0-1,0.3-1.9,1-2.5c0.6-0.6,1.4-1,2.3-1c0.9,0,1.6,0.3,2.3,1C37,145.2,37.3,146,37.3,147.1z M36,147.1c0-0.8-0.2-1.4-0.6-1.8
			c-0.4-0.4-0.8-0.6-1.3-0.6c-0.5,0-0.9,0.2-1.3,0.6c-0.4,0.4-0.6,1-0.6,1.8c0,0.8,0.2,1.4,0.6,1.8c0.4,0.4,0.8,0.6,1.3,0.6
			c0.5,0,0.9-0.2,1.3-0.6C35.8,148.4,36,147.8,36,147.1z"/>
		<path class="st7" d="M45.1,144.7c-0.3-0.1-0.5-0.1-0.8-0.1c-0.3,0-0.5,0-0.8,0.1c0.1,0.1,0.2,0.3,0.3,0.4c0.1,0.2,0.1,0.4,0.1,0.8
			c0,0.7-0.2,1.2-0.7,1.7c-0.5,0.4-1,0.7-1.7,0.7c-0.2,0-0.4,0-0.6-0.1c-0.3-0.1-0.5-0.1-0.6-0.2c-0.1,0.1-0.2,0.2-0.2,0.2
			c0,0.1-0.1,0.2-0.1,0.3c0,0.2,0.1,0.3,0.4,0.4c0.3,0.1,0.8,0.1,1.5,0.1c1.1,0,1.9,0.2,2.3,0.5c0.4,0.3,0.6,0.7,0.6,1.2
			c0,0.6-0.3,1.1-0.9,1.4c-0.6,0.3-1.3,0.4-2.2,0.4c-1.1,0-1.9-0.1-2.4-0.4c-0.5-0.3-0.8-0.7-0.8-1.1c0-0.2,0.1-0.5,0.3-0.7
			c0.2-0.2,0.5-0.4,0.8-0.6c-0.2-0.1-0.4-0.3-0.6-0.4c-0.1-0.2-0.2-0.4-0.2-0.7c0-0.2,0.1-0.4,0.3-0.6s0.4-0.3,0.6-0.4
			c-0.2-0.2-0.4-0.4-0.5-0.7c-0.1-0.3-0.2-0.6-0.2-0.9c0-0.7,0.2-1.2,0.7-1.7c0.5-0.4,1-0.7,1.7-0.7c0.4,0,0.7,0.1,0.9,0.1
			c0.3,0.1,0.5,0.2,0.7,0.4c0.3-0.2,0.6-0.4,1-0.5c0.3-0.1,0.7-0.1,1-0.1V144.7z M43.7,150.9c0-0.2-0.1-0.3-0.3-0.5
			c-0.2-0.2-0.6-0.2-1.3-0.2c-0.2,0-0.4,0-0.7,0c-0.3,0-0.6,0-1-0.1c-0.3,0.1-0.5,0.3-0.7,0.4c-0.1,0.2-0.2,0.3-0.2,0.5
			c0,0.2,0.2,0.4,0.5,0.6c0.3,0.2,0.9,0.2,1.7,0.2c0.7,0,1.2-0.1,1.5-0.3S43.7,151.1,43.7,150.9z M42.7,145.9c0-0.4-0.1-0.7-0.3-1
			c-0.2-0.2-0.5-0.4-0.9-0.4c-0.4,0-0.7,0.1-0.9,0.4c-0.2,0.2-0.3,0.6-0.3,1c0,0.4,0.1,0.7,0.3,1c0.2,0.2,0.5,0.4,0.9,0.4
			c0.4,0,0.7-0.1,0.9-0.4C42.6,146.6,42.7,146.3,42.7,145.9z"/>
		<path class="st7" d="M51.5,144.9c-0.8-0.1-1.4,0-1.9,0.3c-0.5,0.3-1,0.9-1.3,1.8v3.4h-1.2v-6.7h1.2v1.7c0.4-0.6,0.8-1.1,1.3-1.4
			c0.5-0.3,1.2-0.4,1.9-0.4V144.9z"/>
		<path class="st7" d="M60,150.4h-1.4c-0.1-0.1-0.1-0.2-0.2-0.3c0-0.1-0.1-0.3-0.1-0.5c-0.3,0.3-0.6,0.6-1,0.7
			c-0.4,0.2-0.8,0.2-1.2,0.2c-0.6,0-1.2-0.2-1.6-0.5c-0.4-0.3-0.7-0.8-0.7-1.4c0-0.6,0.2-1.1,0.6-1.4c0.4-0.4,1-0.6,1.8-0.7
			c0.6-0.1,1-0.2,1.5-0.3c0.4-0.1,0.6-0.3,0.6-0.5c0-0.2-0.1-0.5-0.3-0.7c-0.2-0.2-0.6-0.4-1.2-0.4c-0.5,0-0.8,0.1-1,0.3
			c-0.2,0.2-0.4,0.4-0.4,0.7h-1.3c0.1-0.6,0.4-1.1,0.9-1.5c0.5-0.4,1.1-0.6,1.9-0.6c0.9,0,1.5,0.2,2,0.6c0.4,0.4,0.7,1,0.7,1.7v3.3
			c0,0.2,0,0.5,0.1,0.7C59.8,150,59.9,150.2,60,150.4z M58.4,148.2V147c-0.2,0.1-0.5,0.1-0.7,0.2c-0.2,0.1-0.6,0.1-1.1,0.2
			c-0.6,0.1-1,0.2-1.2,0.4c-0.2,0.2-0.3,0.4-0.3,0.7c0,0.2,0.1,0.4,0.3,0.6s0.4,0.3,0.8,0.3s0.7-0.1,1.2-0.3
			C57.8,148.9,58.1,148.6,58.4,148.2z"/>
		<path class="st7" d="M68.1,150.4h-1.2v-4.8c0-0.2,0-0.4-0.1-0.6c-0.1-0.2-0.2-0.2-0.5-0.2c-0.3,0-0.5,0.1-0.8,0.4
			c-0.2,0.3-0.4,0.7-0.4,1.2v4H64v-4.8c0-0.2,0-0.4-0.1-0.6c-0.1-0.2-0.2-0.2-0.5-0.2c-0.3,0-0.5,0.1-0.8,0.4
			c-0.2,0.3-0.4,0.7-0.4,1.2v4H61v-6.7h1.2v0.9c0.2-0.3,0.4-0.6,0.7-0.7c0.3-0.2,0.6-0.3,0.9-0.3c0.3,0,0.6,0.1,0.8,0.3
			c0.2,0.2,0.4,0.4,0.4,0.7c0.2-0.3,0.4-0.6,0.7-0.7c0.3-0.2,0.5-0.3,0.9-0.3c0.5,0,0.8,0.1,1.1,0.4c0.2,0.3,0.4,0.6,0.4,1.1V150.4z
			"/>
		<path class="st7" d="M75.7,150.4h-1.2v-4.8c0-0.2,0-0.4-0.1-0.6c-0.1-0.2-0.2-0.2-0.5-0.2c-0.3,0-0.5,0.1-0.8,0.4
			c-0.2,0.3-0.4,0.7-0.4,1.2v4h-1.2v-4.8c0-0.2,0-0.4-0.1-0.6c-0.1-0.2-0.2-0.2-0.5-0.2c-0.3,0-0.5,0.1-0.8,0.4
			c-0.2,0.3-0.4,0.7-0.4,1.2v4h-1.2v-6.7h1.2v0.9c0.2-0.3,0.4-0.6,0.7-0.7c0.3-0.2,0.6-0.3,0.9-0.3c0.3,0,0.6,0.1,0.8,0.3
			c0.2,0.2,0.4,0.4,0.4,0.7c0.2-0.3,0.4-0.6,0.7-0.7c0.3-0.2,0.5-0.3,0.9-0.3c0.5,0,0.8,0.1,1.1,0.4c0.2,0.3,0.4,0.6,0.4,1.1V150.4z
			"/>
		<path class="st7" d="M80.3,141.8h-1.2v-1.5h1.2V141.8z M80.3,150.4h-1.2v-6.7h1.2V150.4z"/>
		<path class="st7" d="M90.3,150.4h-1.2v-4.3c0-0.5-0.1-0.9-0.4-1.1c-0.2-0.3-0.6-0.4-1-0.4c-0.5,0-1,0.3-1.5,0.8
			c-0.5,0.5-0.7,1.2-0.7,2v3h-1.2v-6.7h1.2v1.2c0.3-0.4,0.7-0.8,1-1c0.4-0.2,0.9-0.4,1.5-0.4c0.7,0,1.2,0.2,1.6,0.6
			c0.4,0.4,0.5,0.9,0.5,1.5V150.4z"/>
		<path class="st7" d="M98.3,144.7c-0.3-0.1-0.5-0.1-0.8-0.1c-0.3,0-0.5,0-0.8,0.1c0.1,0.1,0.2,0.3,0.3,0.4c0.1,0.2,0.1,0.4,0.1,0.8
			c0,0.7-0.2,1.2-0.7,1.7c-0.5,0.4-1,0.7-1.7,0.7c-0.2,0-0.4,0-0.6-0.1c-0.3-0.1-0.5-0.1-0.6-0.2c-0.1,0.1-0.2,0.2-0.2,0.2
			c0,0.1-0.1,0.2-0.1,0.3c0,0.2,0.1,0.3,0.4,0.4c0.3,0.1,0.8,0.1,1.5,0.1c1.1,0,1.9,0.2,2.3,0.5c0.4,0.3,0.6,0.7,0.6,1.2
			c0,0.6-0.3,1.1-0.9,1.4c-0.6,0.3-1.3,0.4-2.2,0.4c-1.1,0-1.9-0.1-2.4-0.4c-0.5-0.3-0.8-0.7-0.8-1.1c0-0.2,0.1-0.5,0.3-0.7
			c0.2-0.2,0.5-0.4,0.8-0.6c-0.2-0.1-0.4-0.3-0.6-0.4c-0.1-0.2-0.2-0.4-0.2-0.7c0-0.2,0.1-0.4,0.3-0.6c0.2-0.2,0.4-0.3,0.6-0.4
			c-0.2-0.2-0.4-0.4-0.5-0.7c-0.1-0.3-0.2-0.6-0.2-0.9c0-0.7,0.2-1.2,0.7-1.7c0.5-0.4,1-0.7,1.7-0.7c0.4,0,0.7,0.1,0.9,0.1
			c0.3,0.1,0.5,0.2,0.7,0.4c0.3-0.2,0.6-0.4,1-0.5c0.3-0.1,0.7-0.1,1-0.1V144.7z M96.9,150.9c0-0.2-0.1-0.3-0.3-0.5
			c-0.2-0.2-0.6-0.2-1.3-0.2c-0.2,0-0.4,0-0.7,0c-0.3,0-0.6,0-1-0.1c-0.3,0.1-0.5,0.3-0.7,0.4c-0.1,0.2-0.2,0.3-0.2,0.5
			c0,0.2,0.2,0.4,0.5,0.6c0.3,0.2,0.9,0.2,1.7,0.2c0.7,0,1.2-0.1,1.5-0.3C96.8,151.3,96.9,151.1,96.9,150.9z M95.9,145.9
			c0-0.4-0.1-0.7-0.3-1c-0.2-0.2-0.5-0.4-0.9-0.4c-0.4,0-0.7,0.1-0.9,0.4c-0.2,0.2-0.3,0.6-0.3,1c0,0.4,0.1,0.7,0.3,1
			c0.2,0.2,0.5,0.4,0.9,0.4c0.4,0,0.7-0.1,0.9-0.4C95.8,146.6,95.9,146.3,95.9,145.9z"/>
		<path class="st7" d="M113,148.5c0,0.6-0.2,1.1-0.7,1.5c-0.5,0.3-1.1,0.5-1.9,0.5c-1,0-1.7-0.2-2.2-0.6c-0.5-0.4-0.8-0.9-0.8-1.6
			h1.2c0,0.5,0.2,0.8,0.5,1c0.3,0.2,0.7,0.2,1.2,0.2s0.8-0.1,1.1-0.3c0.2-0.2,0.4-0.4,0.4-0.7c0-0.2-0.1-0.4-0.3-0.6
			c-0.2-0.2-0.7-0.4-1.5-0.5c-0.9-0.1-1.5-0.3-1.9-0.7c-0.3-0.3-0.5-0.8-0.5-1.3c0-0.5,0.2-0.9,0.7-1.3c0.5-0.4,1.1-0.6,2-0.6
			c0.8,0,1.4,0.2,1.9,0.5c0.5,0.4,0.7,0.8,0.7,1.4h-1.2c0-0.4-0.1-0.6-0.4-0.7c-0.3-0.1-0.6-0.2-1-0.2c-0.5,0-0.9,0.1-1.1,0.3
			c-0.2,0.2-0.3,0.4-0.3,0.6c0,0.3,0.1,0.5,0.3,0.7c0.2,0.2,0.6,0.3,1.2,0.4c1,0.2,1.7,0.4,2.1,0.7C112.8,147.6,113,148,113,148.5z"
			/>
		<path class="st7" d="M121,150.4h-1.4l-2.1-3.6l-1.4,1.3v2.3h-1.2v-10.2h1.2v6.5l3-3h1.5l-2.3,2.3L121,150.4z"/>
		<path class="st7" d="M125.9,141.8h-1.2v-1.5h1.2V141.8z M125.9,150.4h-1.2v-6.7h1.2V150.4z"/>
		<path class="st7" d="M133.6,150.4h-1.2v-10.2h1.2V150.4z"/>
		<path class="st7" d="M141.2,150.4H140v-10.2h1.2V150.4z"/>
		<path class="st7" d="M151,148.5c0,0.6-0.2,1.1-0.7,1.5c-0.5,0.3-1.1,0.5-1.9,0.5c-1,0-1.7-0.2-2.2-0.6c-0.5-0.4-0.8-0.9-0.8-1.6
			h1.2c0,0.5,0.2,0.8,0.5,1c0.3,0.2,0.7,0.2,1.2,0.2c0.5,0,0.8-0.1,1.1-0.3c0.2-0.2,0.4-0.4,0.4-0.7c0-0.2-0.1-0.4-0.3-0.6
			c-0.2-0.2-0.7-0.4-1.5-0.5c-0.9-0.1-1.5-0.3-1.9-0.7c-0.3-0.3-0.5-0.8-0.5-1.3c0-0.5,0.2-0.9,0.7-1.3c0.5-0.4,1.1-0.6,2-0.6
			c0.8,0,1.4,0.2,1.9,0.5c0.5,0.4,0.7,0.8,0.7,1.4h-1.2c0-0.4-0.1-0.6-0.4-0.7c-0.3-0.1-0.6-0.2-1-0.2c-0.5,0-0.9,0.1-1.1,0.3
			c-0.2,0.2-0.3,0.4-0.3,0.6c0,0.3,0.1,0.5,0.3,0.7c0.2,0.2,0.6,0.3,1.2,0.4c1,0.2,1.7,0.4,2.1,0.7C150.8,147.6,151,148,151,148.5z"
			/>
	</g>
</g>
</svg>
